<?xml version="1.0" encoding="UTF-8"?>
<svg xmlns="http://www.w3.org/2000/svg" version="1.1" viewBox="0 0 1920 475.15">
  <defs>
    <style>
      .st1 { fill: #fff; }
      .st2 { fill: red; }
    </style>
  </defs>
  <g>
    <path class="st1" d="M107.86,365.34V64.03h130.06c22.36,0,41.93,4.41,58.7,13.24,16.77,8.83,29.82,21.24,39.13,37.22,9.32,15.99,13.98,34.67,13.98,56.05s-4.78,40.26-14.34,56.05c-9.56,15.79-22.95,27.95-40.16,36.49-17.21,8.53-37.3,12.8-60.25,12.8h-77.68v-63.56h61.2c9.61,0,17.82-1.69,24.64-5.08,6.82-3.38,12.06-8.21,15.74-14.49,3.68-6.28,5.52-13.68,5.52-22.22s-1.84-16.01-5.52-22.14c-3.68-6.13-8.93-10.84-15.74-14.12-6.82-3.29-15.03-4.93-24.64-4.93h-28.84v235.98h-81.8Z"/>
    <path class="st1" d="M646.78,214.69c0,33.54-6.52,61.82-19.57,84.82-13.05,23-30.65,40.41-52.82,52.23-22.17,11.82-46.88,17.73-74.15,17.73s-52.25-5.96-74.37-17.88c-22.12-11.92-39.67-29.37-52.67-52.38-13-23-19.49-51.17-19.49-84.52s6.5-61.81,19.49-84.82c13-23,30.55-40.41,52.67-52.23,22.12-11.82,46.91-17.73,74.37-17.73s51.98,5.91,74.15,17.73c22.17,11.82,39.77,29.23,52.82,52.23,13.04,23,19.57,51.27,19.57,84.82ZM562.62,214.69c0-18.05-2.38-33.27-7.14-45.68-4.76-12.41-11.77-21.82-21.04-28.25-9.27-6.42-20.67-9.64-34.21-9.64s-24.94,3.21-34.21,9.64c-9.27,6.43-16.28,15.84-21.04,28.25-4.76,12.41-7.14,27.64-7.14,45.68s2.38,33.28,7.14,45.68c4.76,12.41,11.77,21.82,21.04,28.25,9.27,6.43,20.67,9.64,34.21,9.64s24.94-3.21,34.21-9.64c9.27-6.42,16.28-15.84,21.04-28.25,4.76-12.41,7.14-27.63,7.14-45.68Z"/>
    <path class="st1" d="M659.58,365.34V64.03h81.8v235.4h121.82v65.91h-203.62Z"/>
    <path class="st1" d="M953.09,64.03v301.31h-81.8V64.03h81.8Z"/>
    <path class="st1" d="M958.83,129.94v-65.91h261.88v65.91h-90.63v235.4h-80.62v-235.4h-90.63Z"/>
    <path class="st1" d="M1308.24,64.03v301.31h-81.8V64.03h81.8Z"/>
    <path class="st1" d="M1322.22,365.34V64.03h81.8v121.82h4.12l90.63-121.82h95.34l-101.81,134.18,104.16,167.13h-97.69l-67.68-112.99-27.07,35.31v77.68h-81.8Z"/>
    <path class="st2" d="M1594.55,365.34v-45.31l142.42-190.08h-141.83v-65.91h245.99v45.31l-142.41,190.08h141.83v65.91h-245.99Z"/>
  </g>
</svg>
